<?xml version="1.0" encoding="UTF-8"?>
<svg id="Layer_2" data-name="Layer 2" xmlns="http://www.w3.org/2000/svg" viewBox="0 0 750.75 169.35">
  <defs>
    <style>
      .cls-1 {
        fill: #258bf4;
      }

      .cls-1, .cls-2 {
        stroke-width: 0px;
      }

      .cls-2 {
        fill: #00302c;
      }
    </style>
  </defs>
  <g id="Layer_1-2" data-name="Layer 1">
    <g>
      <path class="cls-2" d="m271.72,74.37c7.48,1.23,13.8,2.64,18.95,4.23,5.15,1.6,9.99,3.77,14.53,6.53,4.54,2.76,7.94,6.44,10.21,11.04,2.27,4.6,3.4,10.09,3.4,16.46,0,11.53-4.32,21.03-12.97,28.51-8.65,7.48-20.88,11.22-36.7,11.22-19.87,0-36.67-6.87-50.41-20.6l11.77-20.6c5.03,5.76,11.16,10.15,18.4,13.15,7.23,3,14.1,4.51,20.6,4.51,8.09,0,14.41-1.35,18.95-4.05,4.54-2.7,6.81-6.26,6.81-10.67,0-7.85-8.34-13-25.02-15.45-16.92-2.58-29.01-6.96-36.24-13.15-7.24-6.19-10.85-14.19-10.85-24.01,0-10.79,4.23-19.93,12.69-27.41,8.46-7.48,20.05-11.22,34.77-11.22,15.94,0,30.05,5.03,42.31,15.08l-9.93,20.23s0,0,0,0c-9.08-7.85-19.99-11.77-32.75-11.77-6.87,0-12.51,1.07-16.92,3.22-4.42,2.15-6.62,5.55-6.62,10.21,0,4.04,1.84,7.11,5.52,9.2,3.68,2.09,10.18,3.86,19.5,5.34Z"/>
      <path class="cls-2" d="m341.07,69.41c9.44-9.44,20.91-14.16,34.4-14.16s24.95,4.72,34.4,14.16c9.44,9.44,14.16,20.91,14.16,34.4s-4.72,24.96-14.16,34.4c-9.45,9.44-20.91,14.16-34.4,14.16s-24.96-4.72-34.4-14.16c-9.45-9.44-14.16-20.91-14.16-34.4s4.72-24.95,14.16-34.4Zm16.74,52.06c4.9,4.91,10.79,7.36,17.66,7.36s12.75-2.45,17.66-7.36c4.9-4.9,7.36-10.79,7.36-17.66s-2.45-12.75-7.36-17.66c-4.91-4.9-10.79-7.36-17.66-7.36s-12.76,2.46-17.66,7.36c-4.91,4.91-7.36,10.79-7.36,17.66s2.45,12.76,7.36,17.66Z"/>
      <path class="cls-2" d="m435.07,19.92h23.55v129.51h-23.55V19.92Z"/>
      <path class="cls-2" d="m544.71,58.18h23.55v91.24h-23.55v-9.75c-7.36,8.46-16.68,12.69-27.96,12.69-12.63,0-23.39-4.75-32.29-14.25-8.89-9.5-13.34-20.94-13.34-34.31s4.44-24.8,13.34-34.31c8.89-9.5,19.65-14.26,32.29-14.26,11.28,0,20.6,4.23,27.96,12.69v-9.75Zm-42.68,63.28c4.9,4.91,10.79,7.36,17.66,7.36s12.75-2.45,17.66-7.36c4.9-4.9,7.36-10.79,7.36-17.66s-2.45-12.75-7.36-17.66c-4.91-4.9-10.79-7.36-17.66-7.36s-12.76,2.46-17.66,7.36c-4.91,4.91-7.36,10.79-7.36,17.66s2.45,12.76,7.36,17.66Z"/>
      <path class="cls-2" d="m610.2,77.5c2.94-6.74,7.85-11.98,14.72-15.73,6.87-3.74,14.72-5.91,23.55-6.53v27.78s0,0,0,0c-6.13-1.59-12.02-1.59-17.66,0-5.64,1.59-10.49,4.81-14.53,9.66-4.05,4.85-6.07,11.01-6.07,18.49v38.26h-23.55V58.18h23.55v19.32Z"/>
      <path class="cls-2" d="m727.2,58.18h23.55v91.24h-23.55v-9.75c-7.36,8.46-16.68,12.69-27.96,12.69-12.63,0-23.39-4.75-32.29-14.25-8.89-9.5-13.34-20.94-13.34-34.31s4.44-24.8,13.34-34.31c8.89-9.5,19.65-14.26,32.29-14.26,11.28,0,20.6,4.23,27.96,12.69v-9.75Zm-42.68,63.28c4.9,4.91,10.79,7.36,17.66,7.36s12.75-2.45,17.66-7.36c4.9-4.9,7.36-10.79,7.36-17.66s-2.45-12.75-7.36-17.66c-4.91-4.9-10.79-7.36-17.66-7.36s-12.76,2.46-17.66,7.36c-4.91,4.91-7.36,10.79-7.36,17.66s2.45,12.76,7.36,17.66Z"/>
      <g>
        <path class="cls-1" d="m69.55,122.18l-22.37,22.37c33.07,33.07,86.68,33.07,119.75,0l-22.37-22.37c-20.71,20.71-54.29,20.71-75,0Z"/>
        <path class="cls-1" d="m122.18,24.8l22.37-22.37c33.07,33.07,33.07,86.68,0,119.75l-22.37-22.37c20.71-20.71,20.71-54.29,0-75Z"/>
        <path class="cls-1" d="m99.8,47.17l22.37-22.37C89.11-8.27,35.5-8.27,2.43,24.8l22.37,22.37c20.71-20.71,54.29-20.71,75,0Z"/>
        <path class="cls-1" d="m47.17,144.55l-22.37,22.37c-33.07-33.07-33.07-86.68,0-119.75l22.37,22.37c-20.71,20.71-20.71,54.29,0,75Z"/>
      </g>
    </g>
  </g>
</svg>